<svg width="550" height="550" viewBox="0 0 550 550" fill="none" xmlns="http://www.w3.org/2000/svg">
<rect width="550" height="550" />
<path d="M373.255 0H176.739C153.786 0 135.111 18.6712 135.111 41.6247V508.372C135.111 531.325 153.786 550 176.739 550H373.267C396.213 550 414.888 531.324 414.888 508.372V41.6247C414.882 18.6712 396.208 0 373.255 0ZM176.739 13.8874H373.267C387.364 13.8874 398.916 24.5075 400.647 38.1523H149.352C151.075 24.5063 162.629 13.8874 176.739 13.8874ZM400.993 508.371C400.993 523.665 388.55 536.109 373.255 536.109H176.739C161.444 536.109 149.002 523.665 149.002 508.371V504.623H401.005V508.371H400.993ZM400.993 497.677H149.002V45.0972H401.005V497.677H400.993Z" fill="black"/>
<path d="M188.293 33.6802C191.882 33.6802 194.792 30.7708 194.792 27.1818C194.792 23.5929 191.882 20.6834 188.293 20.6834C184.704 20.6834 181.795 23.5929 181.795 27.1818C181.795 30.7708 184.704 33.6802 188.293 33.6802Z" fill="black"/>
<path d="M301.372 20.6706H248.991C245.795 20.6706 244.148 23.0894 245.296 26.0591L245.464 26.4787C246.62 29.4483 250.141 31.8637 253.333 31.8637H298.487C301.684 31.8637 304.908 29.3558 305.718 26.2642C306.502 23.182 304.568 20.6706 301.372 20.6706Z" fill="black"/>
</svg>
